# xmcd
#
# Track frame offsets: 
#        150
#        14427
#        26830
#        39450
#        49487
#        60372
#        71132
#        86177
#
# Disc length: 1325 seconds
#
# Revision: 2
# Processed by: cddbd v1.5.2PL0 Copyright (c) Steve Scherf et al.
# Submitted via: ExactAudioCopy v1.1
#
DISCID=6e052b08
DTITLE=Tex Ritter - Conversation with a Gun - Best Of The Cowboys
DYEAR=1988
DGENRE=Country
TTITLE0=Conversation With A Gun
TTITLE1=High Noon
TTITLE2=Saginaw Michigan
TTITLE3=Bool Weevil
TTITLE4=Green Grow The Lilacs
TTITLE5=Have I Stayed Away Too Long
TTITLE6=Hillbilly Heaven
TTITLE7=Rye Whiskey
EXTD=
EXTT0=
EXTT1=
EXTT2=
EXTT3=
EXTT4=
EXTT5=
EXTT6=
EXTT7=
PLAYORDER=
